<svg width="30" height="30" viewBox="0 0 30 30" fill="none" xmlns="http://www.w3.org/2000/svg">
<path opacity="0.9" d="M15 0C12.0333 0 9.13319 0.879734 6.66645 2.52796C4.19972 4.17618 2.27713 6.51886 1.14181 9.25975C0.00649923 12.0006 -0.290551 15.0166 0.288227 17.9263C0.867006 20.8361 2.29562 23.5088 4.3934 25.6066C6.49119 27.7044 9.16393 29.133 12.0736 29.7118C14.9834 30.2906 17.9994 29.9935 20.7403 28.8582C23.4811 27.7229 25.8238 25.8003 27.472 23.3335C29.1203 20.8668 30 17.9667 30 15C30 11.0217 28.4196 7.20644 25.6066 4.3934C22.7936 1.58035 18.9783 0 15 0ZM20.4908 9.60987C20.8716 9.60948 21.2439 9.72205 21.5606 9.93335C21.8774 10.1447 22.1244 10.4452 22.2702 10.7969C22.4161 11.1486 22.4544 11.5357 22.3802 11.9091C22.306 12.2826 22.1227 12.6257 21.8535 12.8949C21.5842 13.1642 21.2412 13.3475 20.8677 13.4217C20.4942 13.4959 20.1071 13.4576 19.7554 13.3117C19.4037 13.1658 19.1032 12.9188 18.8919 12.6021C18.6806 12.2853 18.568 11.913 18.5684 11.5322C18.5684 11.0224 18.771 10.5334 19.1315 10.1729C19.492 9.8124 19.9809 9.60987 20.4908 9.60987ZM9.50922 9.60987C9.88998 9.60948 10.2623 9.72205 10.5791 9.93335C10.8958 10.1447 11.1428 10.4452 11.2887 10.7969C11.4346 11.1486 11.4728 11.5357 11.3987 11.9091C11.3245 12.2826 11.1411 12.6257 10.8719 12.8949C10.6027 13.1642 10.2596 13.3475 9.88613 13.4217C9.51266 13.4959 9.12557 13.4576 8.77386 13.3117C8.42216 13.1658 8.12163 12.9188 7.91033 12.6021C7.69904 12.2853 7.58646 11.913 7.58685 11.5322C7.58737 11.0226 7.79007 10.5339 8.15047 10.1735C8.51087 9.81309 8.99953 9.61039 9.50922 9.60987ZM23.4474 18.825C22.8178 22.4191 19.275 24.9118 15 24.9118C10.725 24.9118 7.18422 22.4191 6.55461 18.825C6.54785 18.7885 6.54389 18.7516 6.54277 18.7145C6.54277 18.1954 7.17435 17.8599 7.72698 18.0493C9.85856 18.7855 12.3454 19.1605 15.002 19.1605C17.6586 19.1605 20.1454 18.7855 22.277 18.0493C22.8276 17.852 23.4612 18.1934 23.4612 18.7145C23.4594 18.7516 23.4548 18.7886 23.4474 18.825Z" fill="#375DFB"/>
</svg>
