<svg width="42" height="43" viewBox="0 0 42 43" fill="none" xmlns="http://www.w3.org/2000/svg">
<circle cx="21" cy="21.5" r="21" fill="#E0F8ED"/>
<path d="M17 13C13.134 13 10 16.134 10 20C10 23.866 13.134 27 17 27H18.0709C18.0242 26.6734 18 26.3395 18 26C18 25.6605 18.0242 25.3266 18.0709 25H17C14.2386 25 12 22.7614 12 20C12 17.2386 14.2386 15 17 15H25C27.7614 15 30 17.2386 30 20C30 20.3428 29.9655 20.6775 29.8998 21.0008C30.4853 21.5748 30.9704 22.2508 31.3264 23C31.7583 22.0907 32 21.0736 32 20C32 16.134 28.866 13 25 13H17ZM25 23C23.3431 23 22 24.3431 22 26C22 27.6569 23.3431 29 25 29C26.6569 29 28 27.6569 28 26C28 24.3431 26.6569 23 25 23ZM20 26C20 23.2386 22.2386 21 25 21C27.7614 21 30 23.2386 30 26C30 27.0191 29.6951 27.967 29.1716 28.7574L31.7071 31.2929L30.2929 32.7071L27.7574 30.1716C26.967 30.6951 26.0191 31 25 31C22.2386 31 20 28.7614 20 26Z" fill="#38C793"/>
</svg>
