<svg width="42" height="43" viewBox="0 0 42 43" fill="none" xmlns="http://www.w3.org/2000/svg">
<circle cx="21" cy="21.5" r="21" fill="#E0F8ED"/>
<path d="M27.031 26.6168L31.3137 30.8995L29.8995 32.3137L25.6168 28.031C24.0769 29.263 22.124 30 20 30C15.032 30 11 25.968 11 21C11 16.032 15.032 12 20 12C24.968 12 29 16.032 29 21C29 23.124 28.263 25.0769 27.031 26.6168ZM25.0247 25.8748C26.2475 24.6146 27 22.8956 27 21C27 17.1325 23.8675 14 20 14C16.1325 14 13 17.1325 13 21C13 24.8675 16.1325 28 20 28C21.8956 28 23.6146 27.2475 24.8748 26.0247L25.0247 25.8748Z" fill="#38C793"/>
</svg>
