<svg width="42" height="43" viewBox="0 0 42 43" fill="none" xmlns="http://www.w3.org/2000/svg">
<circle cx="21" cy="21.5" r="21" fill="#FCF1E1"/>
<path d="M18 12.4578V14.5815C15.0682 15.7683 13 18.6426 13 22C13 26.4183 16.5817 30 21 30C24.3574 30 27.2317 27.9318 28.4185 25H30.5422C29.2679 29.0571 25.4776 32 21 32C15.4771 32 11 27.5228 11 22C11 17.5224 13.9429 13.7321 18 12.4578ZM21 12C26.5228 12 31 16.4771 31 22C31 22.3375 30.9833 22.6711 30.9506 23H20V12.0494C20.3289 12.0167 20.6625 12 21 12ZM22 14.0619V21H28.9381C28.4869 17.3813 25.6187 14.5131 22 14.0619Z" fill="#F2AE40"/>
</svg>
