<svg width="42" height="43" viewBox="0 0 42 43" fill="none" xmlns="http://www.w3.org/2000/svg">
<circle cx="21" cy="21.5" r="21" fill="#FCF1E1"/>
<path d="M18.4462 18.0286L21 20.5824L27.7279 13.8545C28.509 13.0734 29.7753 13.0734 30.5563 13.8545L18.4462 25.9646C18.7981 26.5602 19 27.2548 19 27.9966C19 30.2057 17.2091 31.9966 15 31.9966C12.7909 31.9966 11 30.2057 11 27.9966C11 25.7875 12.7909 23.9966 15 23.9966C15.7418 23.9966 16.4365 24.1985 17.032 24.5504L19.5858 21.9966L17.032 19.4428C16.4365 19.7947 15.7418 19.9966 15 19.9966C12.7909 19.9966 11 18.2057 11 15.9966C11 13.7874 12.7909 11.9966 15 11.9966C17.2091 11.9966 19 13.7874 19 15.9966C19 16.7384 18.7981 17.433 18.4462 18.0286ZM23.8255 23.4079L30.5563 30.1387C29.7753 30.9198 28.509 30.9198 27.7279 30.1387L22.4113 24.8221L23.8255 23.4079ZM16.4142 26.5824C16.0523 26.2205 15.5523 25.9966 15 25.9966C13.8954 25.9966 13 26.892 13 27.9966C13 29.1012 13.8954 29.9966 15 29.9966C16.1046 29.9966 17 29.1012 17 27.9966C17 27.4443 16.7761 26.9443 16.4142 26.5824ZM16.4142 17.4108C16.7761 17.0489 17 16.5489 17 15.9966C17 14.892 16.1046 13.9966 15 13.9966C13.8954 13.9966 13 14.892 13 15.9966C13 17.1012 13.8954 17.9966 15 17.9966C15.5523 17.9966 16.0523 17.7727 16.4142 17.4108Z" fill="#F2AE40"/>
</svg>
