<svg width="58" height="48" viewBox="0 0 58 48" fill="none" xmlns="http://www.w3.org/2000/svg">
<mask id="mask0_1_387" style="mask-type:luminance" maskUnits="userSpaceOnUse" x="1" y="9" width="56" height="24">
<path d="M56.5262 9.42853H1.71411V32.5714H56.5262V9.42853Z" fill="white"/>
</mask>
<g mask="url(#mask0_1_387)">
<path d="M19.1969 16.677L12.7335 32.3379H8.14927L1.71411 16.677H6.29837L10.5408 27.3312L14.9258 16.677H19.1969ZM29.3043 32.5707C27.6909 32.5707 26.2433 32.2263 24.9619 31.5373C23.7192 30.885 22.6791 29.8916 21.9581 28.6683C21.2369 27.4464 20.8764 26.059 20.8764 24.5065C20.8764 22.9542 21.2373 21.5667 21.9588 20.3444C22.6798 19.1218 23.7201 18.1287 24.9626 17.4768C26.2438 16.7877 27.6914 16.4432 29.305 16.4434C30.9187 16.4436 32.3613 16.788 33.6329 17.4768C34.8696 18.1318 35.9045 19.1245 36.6228 20.3444C37.3442 21.5669 37.7049 22.9544 37.7049 24.507C37.7049 26.0597 37.3442 27.4472 36.6228 28.6698C35.9047 29.8902 34.8699 30.8835 33.6331 31.539C32.3613 32.2268 30.9178 32.5707 29.3043 32.5707ZM29.3043 28.8447C30.4431 28.8447 31.3781 28.4518 32.1089 27.6658C32.8397 26.8798 33.2052 25.8269 33.2052 24.5072C33.2052 23.1876 32.8397 22.1345 32.1089 21.3485C31.3781 20.5623 30.4431 20.1694 29.3043 20.1701C28.1654 20.1701 27.2258 20.563 26.4854 21.349C25.7451 22.135 25.3749 23.1881 25.3749 24.5079C25.3749 25.8277 25.7451 26.8805 26.4854 27.6665C27.2258 28.4523 28.1649 28.845 29.3043 28.8447ZM42.0888 16.677H46.5307V32.3379H42.0895L42.0888 16.677ZM44.3098 14.4938C43.4938 14.4938 42.8294 14.2512 42.3166 13.766C42.0691 13.5394 41.8725 13.2609 41.7398 12.9494C41.6073 12.638 41.5421 12.301 41.5486 11.9614C41.5421 11.6217 41.6074 11.2846 41.7401 10.9731C41.8728 10.6616 42.0696 10.3831 42.3173 10.1566C42.8299 9.6712 43.4943 9.42853 44.3105 9.42853C45.1267 9.42853 45.7911 9.66141 46.3037 10.1272C46.5501 10.3422 46.7469 10.6103 46.8797 10.9123C47.0126 11.2143 47.0784 11.5426 47.0724 11.8737C47.082 12.2246 47.0184 12.5734 46.8857 12.8972C46.7532 13.2209 46.5549 13.5121 46.3037 13.7514C45.7911 14.2466 45.126 14.4938 44.3098 14.4938ZM53.7636 32.5707C53.3991 32.5793 53.0366 32.5114 52.6987 32.3712C52.3608 32.2309 52.0546 32.0216 51.7989 31.7557C51.5369 31.4897 51.331 31.1717 51.1937 30.8213C51.0566 30.4709 50.9911 30.0953 51.001 29.718C51.001 28.8838 51.2667 28.2094 51.7983 27.6949C52.3373 27.1983 53.0373 26.9233 53.7629 26.9233C54.4886 26.9233 55.1885 27.1983 55.7277 27.6949C56.2599 28.209 56.5262 28.8834 56.5262 29.718C56.5363 30.0953 56.4708 30.4707 56.3338 30.8211C56.1967 31.1717 55.9908 31.4897 55.729 31.7557C55.4734 32.0214 55.1673 32.2309 54.8294 32.371C54.4917 32.5112 54.1281 32.5791 53.7636 32.5707Z" fill="#1B1A1A"/>
</g>
</svg>
