<svg width="84" height="48" viewBox="0 0 84 48" fill="none" xmlns="http://www.w3.org/2000/svg">
<g clip-path="url(#clip0_1_426)">
<g clip-path="url(#clip1_1_426)">
<g clip-path="url(#clip2_1_426)">
<path d="M80.6987 32.7609C82.0497 32.7609 83.1428 31.6536 83.1428 30.2848C83.1428 28.9005 82.0497 27.8085 80.6987 27.8085C79.3324 27.8085 78.2546 28.9005 78.2546 30.2848C78.2546 31.6536 79.3324 32.7609 80.6987 32.7609Z" fill="#1B1A1A"/>
<path fill-rule="evenodd" clip-rule="evenodd" d="M11.39 32.3163L16.9195 15.7832H12.3367L9.00105 28.3373H8.91092L5.56024 15.7832H0.8573L6.43171 32.3163H11.39ZM23.2008 32.671C27.1826 32.671 30.0674 30.4964 30.5482 27.2576H26.5214C26.1156 28.5224 24.8835 29.3398 23.2759 29.3398C21.037 29.3398 19.5795 27.7203 19.5795 25.3608V25.0832H30.6833V23.7104C30.6833 18.6828 27.7234 15.4285 23.0355 15.4285C18.2724 15.4285 15.2674 18.8523 15.2674 24.1268C15.2674 29.4169 18.2424 32.671 23.2008 32.671ZM26.5257 22.3224H19.6893C19.8394 20.2558 21.2218 18.7597 23.1451 18.7597C25.0983 18.7597 26.4357 20.2095 26.5257 22.3224ZM39.0309 32.671C43.0126 32.671 45.8976 30.4964 46.3785 27.2576H42.3516C41.9458 28.5224 40.7138 29.3398 39.1061 29.3398C36.8673 29.3398 35.4098 27.7203 35.4098 25.3608V25.0832H46.5136V23.7104C46.5136 18.6828 43.5537 15.4285 38.8658 15.4285C34.1026 15.4285 31.0977 18.8523 31.0977 24.1268C31.0977 29.4169 34.0726 32.671 39.0309 32.671ZM42.3559 22.3224H35.5193C35.6697 20.2558 37.0521 18.7597 38.9753 18.7597C40.9286 18.7597 42.2657 20.2095 42.3559 22.3224ZM51.9662 37.7142V29.5402H52.0564C52.913 31.4064 54.7159 32.5784 57.0598 32.5784C61.0867 32.5784 63.581 29.3706 63.581 24.0498C63.581 18.7136 61.0716 15.5211 56.9848 15.5211C54.6557 15.5211 52.8677 16.724 51.9964 18.6673H51.9062V15.7832H47.5788V37.7142H51.9662ZM55.5124 28.9542C53.3637 28.9542 51.9513 27.0418 51.9513 24.0498C51.9513 21.0886 53.3637 19.13 55.5124 19.13C57.706 19.13 59.0884 21.0577 59.0884 24.0498C59.0884 27.0572 57.706 28.9542 55.5124 28.9542ZM70.2731 32.671C74.5252 32.671 77.4401 30.5273 77.4401 27.273C77.4401 24.8055 76.1328 23.4946 72.9024 22.7544L69.8222 22.0757C68.4098 21.7364 67.7186 21.1812 67.7186 20.3638C67.7186 19.2996 68.7103 18.5902 70.2278 18.5902C71.8507 18.5902 72.8873 19.4076 72.9775 20.7339H77.0193C76.9591 17.526 74.3297 15.4285 70.288 15.4285C66.156 15.4285 63.4965 17.4951 63.4965 20.6413C63.4965 23.0782 65.0591 24.7129 68.1093 25.4225L71.0843 26.101C72.5268 26.4557 73.0677 26.9184 73.0677 27.7512C73.0677 28.8308 72.0611 29.5093 70.3932 29.5093C68.6501 29.5093 67.5835 28.7074 67.373 27.3193H63.0909C63.3312 30.5427 65.9757 32.671 70.2731 32.671Z" fill="#1B1A1A"/>
</g>
</g>
</g>
<defs>
<clipPath id="clip0_1_426">
<rect width="82.2858" height="48" fill="white" transform="translate(0.856934)"/>
</clipPath>
<clipPath id="clip1_1_426">
<rect width="82.2858" height="48" fill="white" transform="translate(0.856934)"/>
</clipPath>
<clipPath id="clip2_1_426">
<rect width="82.2858" height="48" fill="white" transform="translate(0.856934)"/>
</clipPath>
</defs>
</svg>
