<svg width="199" height="48" viewBox="0 0 199 48" fill="none" xmlns="http://www.w3.org/2000/svg">
<g clip-path="url(#clip0_1_431)">
<g clip-path="url(#clip1_1_431)">
<g clip-path="url(#clip2_1_431)">
<mask id="mask0_1_431" style="mask-type:luminance" maskUnits="userSpaceOnUse" x="0" y="8" width="200" height="30">
<path d="M199 8.57111H0.142822V37.7611H199V8.57111Z" fill="white"/>
</mask>
<g mask="url(#mask0_1_431)">
<path d="M5.13633 22.1834L6.65918 21.609C6.65918 21.609 6.79242 22.0448 6.8432 22.4147C6.8876 22.7845 6.87491 23.6694 6.87491 23.6694L5.13633 22.1834ZM10.0348 23.2072L10.6059 22.8373L11.2848 22.2693L11.4117 22.2165L11.4625 22.778L11.3736 22.8704L10.1554 23.7421L10.0856 23.6694L9.9777 23.2864L10.0348 23.2072ZM15.2759 20.5326C15.3267 20.4796 16.1706 20.09 16.1706 20.09L16.7924 19.6014H17.5031L18.3978 19.1126L19.394 18.2805L21.3419 16.1012L23.2899 18.2805L24.2797 19.1126L25.1871 19.6014H25.8913L26.5069 20.09C26.5069 20.09 27.357 20.4863 27.4079 20.5326C27.6553 20.7637 27.9726 22.1901 27.9726 22.1901L27.7377 22.5335L27.4777 22.91C27.4777 22.91 27.3253 23.5043 27.1794 23.511C25.6693 23.5571 25.0031 23.8016 23.918 25.0761C23.918 25.0761 22.8711 24.977 22.7379 25.1752C22.6235 25.3336 21.6973 26.6744 21.3546 27.1828L19.9713 25.1752C19.8128 24.9837 18.7784 25.0826 18.7784 25.0826C17.6871 23.8081 17.0272 23.5571 15.517 23.5175C15.3647 23.511 15.2188 22.9166 15.2188 22.9166L14.9523 22.5402L14.7175 22.2033C14.7048 22.1968 15.0157 20.7769 15.2759 20.5326ZM31.3355 22.0845L31.4624 22.1241L32.1351 22.6986L32.7188 23.0685L32.7695 23.141L32.6554 23.5307L32.5856 23.6101L31.3672 22.7382L31.2784 22.6458L31.3355 22.0845ZM35.8976 22.276C35.9485 21.9061 36.088 21.4636 36.088 21.4636L37.6045 22.0382L35.8659 23.5374C35.8659 23.5307 35.8532 22.6393 35.8976 22.276ZM0.466303 33.8265L1.03737 33.6746L1.34193 33.4369L1.69726 32.7236L2.01453 32.5717L2.91554 32.0169L4.47009 31.0593L5.4536 30.7028L6.1706 30.6433L6.24674 30.7028L6.27212 30.8942L6.20233 31.1387L5.72644 31.8585L5.51706 32.301V32.6906L5.59953 32.8754L6.97643 33.5689L7.90917 33.9388L8.55004 33.9916L8.82922 33.701L9.27973 33.5689L9.70486 33.3774L9.80003 33.2255V32.8161L9.66044 32.5321L9.43201 32.3473L8.90536 32.3274L8.7848 32.4001L8.62617 32.7633L8.02338 33.1L7.70613 33.0208L6.97643 32.5256L6.9003 32.1292L6.97643 31.7793L7.47771 31.1716L8.7848 30.3659L11.8622 29.5933L12.262 29.798L12.9092 29.6858L13.3406 29.3555L13.5373 29.3291L13.7404 29.5405L13.8482 29.9301L13.7911 30.5773L13.5437 31.2971L13.0424 31.865L11.5576 33.4436L10.682 34.7774L10.663 34.9425L10.4599 35.2333L10.5043 35.2794L10.5868 35.3058H11.1135L11.6845 35.0284L11.7607 34.3746L12.5919 33.417L13.7911 32.1424L14.2226 31.9641H14.4701L14.6668 32.1424L14.6921 32.3406L14.597 32.7236L14.1909 33.3445L13.0678 34.4276L12.5094 35.1143L11.7607 35.5172L11.3419 35.8473L11.215 36.1446L10.4155 37.3993V37.7625L11.4688 37.6569V37.6305L11.4879 37.505L11.8114 36.7785L12.5602 35.8737L14.7366 34.1171L15.6122 33.2255L16.0944 32.4596L16.3419 31.6076L16.7543 30.7953L18.1883 29.0913L18.7974 28.2131L19.1147 27.3942L19.2225 26.5818L19.2923 26.5026H19.3749L19.5208 26.6348C19.5208 26.6348 20.866 28.2064 20.9802 28.1932C21.0627 28.18 21.2404 28.0082 21.3483 27.9093C21.4561 28.0149 21.6337 28.18 21.7163 28.1932C21.8241 28.2131 23.1757 26.6348 23.1757 26.6348L23.3216 26.5026H23.3977L23.4675 26.5818L23.5753 27.3942L23.8926 28.2131L24.5017 29.0913L25.9293 30.7953L26.3545 31.6076L26.602 32.4596L27.0779 33.2255L27.9536 34.1171L30.1362 35.8737L30.885 36.7785L31.2087 37.505L31.215 37.6305V37.6569L32.2746 37.7625V37.3993L31.4751 36.1446L31.3482 35.8473L30.9294 35.5172L30.1743 35.1143L29.6223 34.4276L28.4992 33.3445L28.0995 32.7236L27.998 32.3406L28.017 32.1424L28.22 31.9641H28.4675L28.8927 32.1424L30.0918 33.417L30.9231 34.3746L31.0055 35.0284L31.5765 35.3058H32.0968L32.1858 35.2794L32.2302 35.2333L32.0207 34.9425L32.0017 34.7774L31.126 33.4436L29.6413 31.865L29.1337 31.2971L28.8927 30.5773L28.8419 29.9301L28.9497 29.5405L29.1464 29.3291L29.3495 29.3555L29.7747 29.6858L30.4345 29.798L30.8279 29.5933L33.8926 30.3659L35.1997 31.1783L35.7073 31.7858L35.7771 32.1359L35.7073 32.5321L34.9777 33.0275L34.654 33.1067L34.0576 32.7698L33.8926 32.4066L33.772 32.3341L33.2454 32.3538L33.0169 32.5388L32.8773 32.8226V33.2322L32.9662 33.3841L33.3976 33.5756L33.8418 33.7077L34.1274 33.9983L34.7682 33.9453L35.701 33.5756L37.0715 32.8821L37.1476 32.7038V32.3142L36.951 31.865L36.4688 31.1519L36.3927 30.9009L36.4244 30.7094L36.5005 30.65L37.2174 30.7094L38.2009 31.066L39.7492 32.0236L40.6439 32.5784L40.9674 32.7302L41.3291 33.4436L41.6211 33.6812L42.2048 33.833L42.3507 33.8133L42.5284 33.701V33.6812L42.1033 33.0009L41.4052 32.05L39.8507 31.2246L37.2047 29.4085L36.3291 28.8404L36.0056 28.3847L35.8976 28.0348L35.9739 27.3611L36.1324 26.2648L36.1007 25.1817L35.9548 23.9138L38.0994 22.2496C38.0994 22.2496 38.6134 22.4608 38.7784 22.4675C38.9497 22.4807 39.2034 22.2957 39.2034 22.2957C39.2034 22.2957 39.5461 22.0845 39.5588 21.7808C39.5715 21.49 39.1019 20.6977 39.1019 20.6977L38.385 20.2881L36.7796 18.9212L35.8468 18.3664L35.6819 18.0692L35.758 17.6795L35.8976 17.2634L35.8786 16.9069L35.39 17.4285L35.3202 17.4417L35.149 17.1908L35.0158 16.8078L33.5627 19.2513L33.0042 20.4863L32.7061 21.7808C32.7061 21.7808 32.63 21.959 32.56 21.9656C32.4903 21.9722 32.3634 21.8797 32.3634 21.8797L32.0588 21.6553L31.418 20.3608L31.5385 20.0702L30.7011 18.5183L30.6311 18.3136L30.3076 18.089L29.7937 17.8976L29.6603 17.6927L29.8317 17.5079V17.138L29.8825 17.0588L29.9903 17.0389H30.0601L29.9903 16.4644L30.0601 16.3851L30.4218 16.3521L30.4345 16.3323V16.2795L30.0157 16.0747L29.762 15.4011L29.5588 15.1436L29.1844 14.9388H28.7339L28.3153 15.0907L27.8648 15.7445L27.7377 16.0747V16.2597H27.9219L28.017 16.4314L28.0487 17.1116L28.2961 17.422L28.2644 17.5211L27.8648 17.8578L27.6616 17.9108L26.9574 17.8117L25.4154 17.9108L24.7175 17.7522L24.0131 17.3889L23.1376 16.6163L21.9447 15.2492L22.0461 15.0115L22.0081 14.7803L21.71 14.3973L21.7607 14.2652L26.5703 9.86691L27.3952 10.382L27.6236 10.3292V10.1311L27.3189 9.70841L27.2428 9.50368L26.4243 8.67156L26.1832 8.57251H25.9484V8.79705L26.3418 9.49048L21.3419 14.1794L16.3482 9.49048L16.748 8.79705V8.57251H16.4942L16.2594 8.67156L15.4345 9.49708L15.3584 9.70841L15.0602 10.1245V10.3292L15.2823 10.3886L16.1135 9.86691L20.9168 14.2652L20.9739 14.3973L20.6756 14.7803L20.6439 15.0115L20.7455 15.2492L19.5462 16.6163L18.6705 17.3889L17.9727 17.7522L17.2619 17.9108L15.7201 17.8117L15.0094 17.9108L14.8127 17.8578L14.413 17.5211L14.3812 17.4285L14.635 17.1182L14.6668 16.438L14.762 16.2663H14.9396V16.0747L14.8127 15.7445L14.3622 15.0973L13.9371 14.9322H13.4866L13.1122 15.137L12.9092 15.3945L12.6617 16.0681L12.2366 16.2729V16.3323L12.262 16.3521L12.6109 16.3917L12.6871 16.4644L12.6109 17.0389H12.6871L12.7949 17.0654L12.8457 17.138V17.5079L13.017 17.6927L12.8901 17.8976L12.3698 18.089L12.0399 18.3136L11.9701 18.5183L11.1325 20.0702L11.2594 20.3673L10.6122 21.6486L10.314 21.8732C10.314 21.8732 10.1807 21.9656 10.111 21.959C10.0411 21.9524 9.95866 21.7741 9.95866 21.7741L9.66678 20.4796L9.1084 19.2446L7.65537 16.7946L7.52212 17.1842L7.34445 17.4352L7.26831 17.4153L6.78608 16.8937L6.76705 17.2502L6.91299 17.673L6.98913 18.056L6.81781 18.3597L5.89141 18.9145L4.29244 20.2816L3.56908 20.7042C3.56908 20.7042 3.1059 21.49 3.11224 21.7873C3.11858 22.0845 3.46756 22.2957 3.46756 22.2957C3.46756 22.2957 3.72772 22.4807 3.89269 22.4742C4.06401 22.4675 4.57163 22.2561 4.57163 22.2561L6.71629 23.9204L6.57035 25.1884L6.53862 26.2715L6.69724 27.3611L6.77339 28.0348L6.66553 28.3914L6.34826 28.8404L5.47264 29.4085L2.82036 31.2246L1.26579 32.05L0.567826 33.0009L0.1427 33.6812V33.701L0.320365 33.8133L0.466303 33.8265Z" fill="#1B1A1A"/>
<path d="M40.2784 24.3641H40.4118V24.0471H40.526L40.6719 24.0802L40.7416 24.2585V24.3245V24.3509L40.748 24.3641V24.3708H40.8687L40.8623 24.3576L40.856 24.318V24.2057L40.8114 24.0802L40.6782 24.0075L40.7924 23.9745L40.8623 23.8161L40.7543 23.6047L40.5513 23.5783H40.2848L40.2784 24.3641ZM40.6655 23.9349L40.5387 23.9481H40.4118V23.6642H40.5323L40.6972 23.6906L40.7416 23.8029L40.6655 23.9349ZM41.0526 23.4593C40.9131 23.3206 40.748 23.2481 40.564 23.2481C40.3674 23.2481 40.2087 23.3206 40.0755 23.4593C39.9423 23.598 39.866 23.7698 39.866 23.9745C39.866 24.1726 39.9359 24.3312 40.0691 24.4764C40.2087 24.6151 40.3674 24.6943 40.564 24.6878C40.748 24.6878 40.9194 24.6151 41.0526 24.4764C41.1858 24.3312 41.2492 24.1726 41.2492 23.9745C41.2556 23.7765 41.1858 23.6047 41.0526 23.4593ZM40.9828 23.532C41.097 23.6575 41.1604 23.7962 41.1604 23.9745C41.1604 24.1462 41.1033 24.2914 40.9828 24.4104C40.8687 24.5359 40.7226 24.5954 40.564 24.5954C40.3991 24.5954 40.2594 24.5359 40.1389 24.4104C40.0247 24.2914 39.9676 24.1462 39.9676 23.9745C39.9676 23.7962 40.0247 23.651 40.1389 23.532C40.2594 23.4065 40.3991 23.3537 40.564 23.3537C40.7226 23.3472 40.8687 23.4065 40.9828 23.532Z" fill="#1B1A1A"/>
<path d="M159.812 28.7701H158.073V18.2101H159.748C159.748 18.2101 160.992 18.0582 160.979 16.8431C160.96 15.7336 159.812 15.6544 159.812 15.6544H153.194C153.194 15.6544 152.013 15.7204 152.045 17.0016C152.09 18.1508 153.257 18.1772 153.257 18.1772H155.237L155.243 28.79H153.949C153.949 28.79 152.8 28.988 152.756 30.137C152.832 31.6494 154.412 31.5438 154.412 31.5438H159.894C159.894 31.5438 161.157 31.3456 161.119 30.0974C161.068 28.8493 159.812 28.7701 159.812 28.7701Z" fill="#1B1A1A"/>
<path d="M68.7662 24.0213L71.1773 19.5768L73.671 24.0213H68.7662ZM81.3105 28.7697H79.1659L78.119 26.8281L80.1177 26.8214C80.1177 26.8214 81.2851 26.8017 81.2851 25.5204C81.2851 24.2393 80.0226 24.1732 80.0226 24.1732L76.7928 24.1799L72.3004 15.6606H66.1836C66.1836 15.6606 64.8957 15.7398 64.9591 16.9418C65.0352 18.1372 66.0885 18.2229 66.0885 18.2229H68.7091L62.7446 28.7169H58.4299V15.6342H53.8042C53.8042 15.6342 52.5797 15.8521 52.6241 16.9814C52.6622 18.1041 53.7472 18.1965 53.7472 18.1965H55.4033L55.4097 28.7762H52.8715C52.8715 28.7762 51.7231 28.9943 51.7739 30.2489C51.85 31.4179 53.0176 31.5038 53.0176 31.5038L67.2751 31.4971C67.2751 31.4971 68.6901 31.5633 68.6901 30.2357C68.6901 28.9017 67.5225 28.7697 67.5225 28.7697H66.0885L67.199 26.8612H75.0035L75.8157 28.7565H73.506C73.506 28.7565 72.2813 28.9017 72.2433 30.1829C72.3257 31.3783 73.3855 31.5038 73.3855 31.5038L81.1139 31.4971C81.1139 31.4971 82.421 31.451 82.421 30.2357C82.4337 28.9084 81.3105 28.7697 81.3105 28.7697Z" fill="#1B1A1A"/>
<path d="M184.999 24.1266L187.639 19.6094L190.133 24.1398L184.999 24.1266ZM197.741 28.7692H195.641L194.619 26.8936H196.598C196.598 26.8936 197.727 26.7813 197.76 25.5597C197.798 24.3248 196.529 24.219 196.529 24.219H193.311L188.768 15.6007H182.779C182.779 15.6007 181.586 15.7064 181.586 16.8423C181.586 17.9781 182.715 18.1895 182.715 18.1895H184.961L178.56 28.8088V18.2027H179.847C179.847 18.2027 181.046 18.1235 181.034 16.8819C181.015 15.6403 179.803 15.6271 179.803 15.6271L174.567 15.6337C174.567 15.6337 173.355 15.68 173.299 16.8753C173.242 18.0839 174.44 18.1962 174.44 18.1962H175.748V26.055L168.648 15.6271H162.924C162.924 15.6271 161.947 15.5479 161.795 16.7828C161.63 18.0177 163.007 18.1168 163.007 18.1168L164.289 18.1103V28.756H163.267C163.267 28.756 162.055 28.8352 162.036 30.1033C162.036 31.3448 163.362 31.5033 163.362 31.5033H168.927C168.927 31.5033 170.031 31.3514 170.075 30.1165C170.114 28.8882 168.794 28.756 168.794 28.756H167.157V19.5896L175.615 31.51L184.263 31.5033C184.263 31.5033 185.431 31.5033 185.475 30.2089C185.532 28.9146 184.212 28.7627 184.212 28.7627H182.264L183.35 26.8211L191.453 26.8012L192.348 28.7627H190.032C190.032 28.7627 188.686 28.822 188.686 30.1628C188.693 31.5033 189.999 31.5232 189.999 31.5232H197.791C197.791 31.5232 199.003 31.391 199.003 30.1429C199.003 28.9079 197.741 28.7692 197.741 28.7692Z" fill="#1B1A1A"/>
<path d="M131.12 21.9074C128.956 21.9668 128.499 21.9074 128.499 21.9074V18.0572H131.367C131.367 18.0572 133.246 17.8063 133.43 19.3186C133.576 20.5073 133.271 21.848 131.12 21.9074ZM114.534 24.2321L116.945 19.7148L119.527 24.2321H114.534ZM138.886 21.0356C138.886 21.0356 139.007 22.2641 140.168 22.2046C141.317 22.1451 141.317 20.9432 141.317 20.9432L141.323 18.077H143.569V28.7823H138.328L138.144 28.3992C138.144 28.3992 137.649 27.3293 136.697 26.0811C135.758 24.8528 133.931 24.0404 133.931 24.0404C133.931 24.0404 136.977 23.7698 137.148 19.781C137.211 16.5845 134.546 15.6335 134.546 15.6335H123.258C123.258 15.6335 122.249 15.9307 122.249 17.0204C122.249 18.0242 123.246 18.1959 123.246 18.1959H125.333V28.67L119.768 18.2024L120.612 18.1959C120.612 18.1959 121.774 18.1167 121.78 16.8553C121.805 15.8515 120.676 15.6467 120.676 15.6467H112.719C112.719 15.6467 111.475 15.792 111.475 16.9081C111.475 18.0506 112.636 18.2024 112.636 18.2024H114.419L109.978 26.7218L106.691 18.2024H108.899C108.899 18.2024 110.067 18.0968 110.067 16.9081C110.067 15.7194 108.899 15.6467 108.899 15.6467H104.591L100.968 20.3554L98.1632 15.6335H93.4043C93.4043 15.6335 92.2367 15.7128 92.2177 16.9081C92.2114 18.1167 93.3853 18.2422 93.3853 18.2422H95.1047L90.6505 28.736H89.5083C89.5083 28.736 88.214 28.8152 88.214 30.1229C88.214 31.4306 89.4829 31.4834 89.4829 31.4834H96.1517C96.1517 31.4834 97.3193 31.272 97.3193 30.0106C97.3193 28.7492 96.1073 28.7558 96.1073 28.7558H93.8549L97.3256 20.078L100.295 25.1235C100.295 25.1235 100.669 25.8434 100.968 25.8632C101.253 25.8632 101.685 25.1566 101.685 25.1566L104.546 20.0847L107.63 28.769H104.832C104.832 28.769 103.848 29.1718 103.867 30.0833C103.867 31.2257 104.883 31.5098 104.883 31.5098L114.147 31.5163C114.147 31.5163 115.409 31.5163 115.454 30.1361C115.333 28.769 114.147 28.7888 114.147 28.7888H112.598L113.379 26.8274H120.999L121.824 28.8351L120.6 28.8416C120.6 28.8416 119.489 29.2841 119.553 30.2748C119.597 31.338 120.638 31.556 120.638 31.556L130.327 31.5626C130.327 31.5626 131.52 31.4371 131.52 30.0898C131.513 29.0266 130.327 28.769 130.327 28.769H128.633V24.9848L129.077 24.9783C129.077 24.9783 130.403 25.0906 130.758 25.1897C131.101 25.2821 131.907 25.619 132.294 25.9095C132.922 26.3321 133.588 27.085 133.588 27.085C133.588 27.085 134.572 28.2408 134.965 28.9803C135.377 29.7464 135.891 31.4899 135.891 31.4899H148.709C149.426 31.4899 149.997 30.889 149.997 30.1294C149.997 29.3832 149.419 28.769 148.709 28.769H148.645H148.36H146.685L146.691 18.0638H148.671V20.93C148.671 20.93 148.709 22.165 150.003 22.1386C151.145 22.112 151.126 20.93 151.126 20.93V15.5873H138.88V21.0356H138.886Z" fill="#1B1A1A"/>
<path d="M195.749 19.7945H196.047V19.0811H196.294L196.625 19.1538L196.776 19.5567V19.7086L196.783 19.7614L196.795 19.7878L196.802 19.801H197.074L197.062 19.7681L197.048 19.6822V19.4245L196.954 19.1339L196.656 18.9623L196.916 18.8963L197.069 18.5396L196.808 18.0839L196.358 18.0179H195.754L195.749 19.7945ZM196.611 18.8302L196.327 18.8633H196.04V18.2293H196.306L196.675 18.2953L196.776 18.5528L196.611 18.8302ZM197.487 17.767C197.177 17.4565 196.802 17.2914 196.383 17.2849C195.944 17.2849 195.583 17.4565 195.286 17.7603C194.981 18.0774 194.822 18.4604 194.822 18.9161C194.822 19.3585 194.988 19.7218 195.272 20.0519C195.578 20.3624 195.951 20.534 196.383 20.534C196.802 20.534 197.182 20.3624 197.487 20.0586C197.792 19.735 197.931 19.3717 197.938 18.9227C197.931 18.4669 197.786 18.0774 197.487 17.767ZM197.323 17.9189C197.582 18.1962 197.715 18.5132 197.715 18.9161C197.715 19.2925 197.582 19.6227 197.323 19.8869C197.069 20.1709 196.738 20.3029 196.383 20.3029C196.008 20.3029 195.691 20.1642 195.432 19.8869C195.171 19.6162 195.044 19.2925 195.044 18.9095C195.044 18.5067 195.178 18.1895 195.432 17.9122C195.698 17.6348 196.015 17.5095 196.383 17.5095C196.745 17.5095 197.069 17.6415 197.323 17.9189Z" fill="#1B1A1A"/>
</g>
</g>
</g>
</g>
<defs>
<clipPath id="clip0_1_431">
<rect width="198.857" height="48" fill="white" transform="translate(0.142822)"/>
</clipPath>
<clipPath id="clip1_1_431">
<rect width="198.857" height="48" fill="white" transform="translate(0.142822)"/>
</clipPath>
<clipPath id="clip2_1_431">
<rect width="198.857" height="48" fill="white" transform="translate(0.142822)"/>
</clipPath>
</defs>
</svg>
