<svg width="127" height="48" viewBox="0 0 127 48" fill="none" xmlns="http://www.w3.org/2000/svg">
<path d="M12.1023 18.2529L11.7832 15.1904C11.7133 13.8386 13.6929 13.8378 13.6238 15.1904L13.3047 18.2529C13.219 18.9705 12.184 18.965 12.1023 18.2529ZM8.41731 19.5717L6.60978 17.0788C5.87262 15.9448 7.58898 14.953 8.20355 16.1593L9.45938 18.9705C9.74466 19.6344 8.84403 20.1477 8.41731 19.5717ZM5.8852 22.5556L3.0741 21.3014C1.86777 20.6875 2.85798 18.9705 3.99436 19.7076L6.48717 21.5152C7.06638 21.9473 6.54297 22.84 5.8852 22.5556ZM5.3343 26.4583L2.2725 26.7773C0.920791 26.8466 0.920004 24.8676 2.2725 24.9369L5.3343 25.2559C6.05258 25.3408 6.04708 26.3759 5.3343 26.4583ZM20.1066 25.2213L23.1683 24.9023C24.52 24.8323 24.5215 26.812 23.1683 26.7427L20.1066 26.4237C19.3883 26.338 19.3944 25.3031 20.1066 25.2213ZM18.9371 21.4852L21.4291 19.6778C22.5631 18.9405 23.5557 20.6561 22.3494 21.2714L19.5383 22.5257C18.8742 22.811 18.3611 21.9127 18.9371 21.4852ZM15.9523 18.9532L17.2082 16.1413C17.8211 14.9365 19.5391 15.9267 18.802 17.0623L16.9944 19.5544C16.5622 20.1335 15.6671 19.6109 15.9523 18.9532ZM19.558 28.4277C18.4538 29.1587 17.2506 29.3873 16.0309 29.2168C17.1712 27.869 17.6678 26.423 17.8644 25.6668C18.0642 24.9257 18.0544 24.1435 17.8362 23.4076C17.4196 22.044 16.394 21.2299 15.0941 21.2299C14.023 21.2299 13.208 21.7667 12.7286 22.7858C12.2477 21.7667 11.4343 21.2299 10.3624 21.2299C9.0633 21.2299 8.03773 22.044 7.62042 23.4067C7.40274 24.1195 7.39252 24.9014 7.59213 25.6668C7.74616 26.2579 8.04795 27.1499 8.62242 28.0977C7.34454 28.384 6.172 29.0213 5.23684 29.9381C5.14533 30.0273 5.09145 30.1481 5.08634 30.2757C5.08122 30.4034 5.12524 30.528 5.20934 30.6242C5.29086 30.7229 5.40721 30.7865 5.53432 30.802C5.66144 30.8174 5.78958 30.7833 5.89226 30.7068C6.90606 29.9743 8.04872 29.5161 9.19926 29.4227C10.5588 29.3126 11.8563 29.4604 13.4344 30.185C14.1943 30.5347 15.1523 30.93 16.3657 30.93C17.939 30.93 19.3764 30.276 20.2386 29.1319C20.3088 29.038 20.3431 28.9219 20.3349 28.8048C20.3267 28.6877 20.2766 28.5777 20.1936 28.4945C20.1136 28.409 20.0052 28.3552 19.8887 28.3428C19.7721 28.3307 19.6543 28.3607 19.558 28.4277ZM16.46 24.7828C16.46 25.2945 16.115 27.0736 14.3397 28.6917C13.8171 28.4913 12.261 27.803 10.3459 27.8957C9.36351 26.7491 8.9957 25.3895 8.99178 24.7836C8.98235 23.4539 9.79652 23.0153 10.485 23.0153C11.2017 23.0153 11.7369 23.4688 11.916 24.228C12.0072 24.61 12.3396 24.8764 12.7318 24.8764C13.1247 24.8764 13.4501 24.6091 13.5404 24.228C13.7204 23.4688 14.2556 23.0162 14.9708 23.0162C15.8808 23.0162 16.46 23.7305 16.46 24.7828Z" fill="#1B1A1A"/>
<path fill-rule="evenodd" clip-rule="evenodd" d="M84.8482 17.5546C84.082 17.5546 83.4989 18.0473 83.4989 18.8315C83.4989 19.6167 84.082 20.0898 84.8482 20.0898C85.6137 20.0898 86.1795 19.616 86.1795 18.8324C86.1795 18.0481 85.5964 17.5546 84.8482 17.5546ZM64.0318 21.2576C62.9551 21.2576 61.9335 21.7134 61.3503 22.7711V18.3145C61.3503 18.2339 61.3185 18.1568 61.2616 18.0997C61.2046 18.0426 61.1275 18.0106 61.0471 18.0104H59.6294C59.5894 18.0104 59.5498 18.0183 59.513 18.0335C59.4761 18.0488 59.4427 18.0713 59.4146 18.0995C59.3863 18.1278 59.364 18.1613 59.3488 18.1981C59.3337 18.2351 59.3258 18.2746 59.3259 18.3145V30.4751C59.3259 30.6426 59.4619 30.7786 59.6294 30.7786H61.0471C61.1275 30.7784 61.2045 30.7463 61.2614 30.6894C61.3181 30.6327 61.3502 30.5555 61.3503 30.4751V25.2695C61.3503 23.8832 62.2447 23.0447 63.503 23.0447C64.5977 23.0447 65.3811 23.8463 65.3811 25.1783V30.4751C65.3811 30.6426 65.5171 30.7786 65.6846 30.7786H67.1023C67.1827 30.7784 67.2597 30.7463 67.3166 30.6894C67.3733 30.6327 67.4054 30.5555 67.4055 30.4751V24.8507C67.4055 22.6801 65.9832 21.2576 64.0318 21.2576ZM35.9554 21.2576C33.2198 21.2576 31.1945 23.2458 31.1945 26.1089C31.1945 28.9726 33.2191 30.979 35.9554 30.979C38.692 30.979 40.7155 28.9907 40.7155 26.1089C40.7155 23.2263 38.6911 21.2576 35.9554 21.2576ZM35.9554 29.173C34.4049 29.173 33.274 28.0429 33.274 26.1097C33.274 24.1763 34.4049 23.0816 35.9554 23.0816C37.506 23.0816 38.6542 24.1945 38.6542 26.1097C38.6542 28.0249 37.5052 29.173 35.9554 29.173ZM45.0528 27.969L42.6818 21.6545C42.66 21.5969 42.6213 21.5471 42.5707 21.512C42.52 21.4769 42.4598 21.458 42.3981 21.458H40.8484C40.7986 21.4578 40.7498 21.47 40.7059 21.4933C40.6618 21.5165 40.6243 21.5501 40.5965 21.5912C40.5686 21.6323 40.5513 21.6797 40.5459 21.7292C40.5408 21.7786 40.5477 21.8285 40.5662 21.8746L44.0453 30.5867C44.0678 30.6431 44.1065 30.6913 44.1567 30.7254C44.2068 30.7594 44.2661 30.7777 44.3266 30.7777H45.8119C45.9369 30.7777 46.0478 30.7023 46.0941 30.5861L49.5386 21.873C49.5568 21.8269 49.5634 21.7772 49.5581 21.728C49.5526 21.6788 49.5352 21.6317 49.5074 21.5909C49.4796 21.5499 49.4422 21.5165 49.3983 21.4933C49.3546 21.4702 49.306 21.458 49.2564 21.458H47.7617C47.6352 21.458 47.5212 21.5367 47.4773 21.6545L45.0528 27.969ZM49.4285 26.1089C49.4285 23.191 51.3069 21.2576 53.934 21.2576C56.4693 21.2576 58.2744 23.191 58.2744 26.0547L58.2737 26.27C58.272 26.3492 58.2393 26.4246 58.1825 26.4798C58.1258 26.5352 58.0495 26.5659 57.9703 26.5654H51.472C51.6173 28.3714 52.6027 29.2288 53.9522 29.2288C55.0413 29.2288 55.8917 28.784 56.4309 27.6154C56.4633 27.5454 56.5209 27.49 56.592 27.4602C56.6633 27.4304 56.7432 27.4283 56.8159 27.4542L57.9679 27.896C58.1284 27.9565 58.2077 28.1396 58.1393 28.2968C57.3156 30.1844 55.7431 30.979 53.989 30.979C51.3249 30.979 49.4285 29.0269 49.4285 26.1089ZM53.916 22.9355C52.6389 22.9355 51.7995 23.6828 51.5268 25.1242H56.1965C55.9404 23.6286 55.0838 22.9355 53.916 22.9355ZM68.4531 26.1089C68.4531 23.2451 70.4784 21.2576 73.2141 21.2576C75.9504 21.2576 77.975 23.2263 77.975 26.1089C77.975 28.9914 75.9504 30.979 73.2141 30.979C70.4776 30.979 68.4531 28.9726 68.4531 26.1089ZM70.5326 26.1089C70.5326 28.0421 71.6635 29.1738 73.2141 29.1738C74.7638 29.1738 75.9127 28.0249 75.9127 26.1089C75.9127 24.1945 74.7646 23.0816 73.2141 23.0816C71.6635 23.0816 70.5326 24.1757 70.5326 26.1089ZM85.5295 21.458H84.1111C84.0307 21.458 83.9537 21.4899 83.8968 21.5466C83.8399 21.6034 83.8078 21.6803 83.8077 21.7606V30.476C83.8077 30.6433 83.9436 30.7794 84.1118 30.7794H85.5295C85.6101 30.7794 85.6872 30.7474 85.7441 30.6904C85.8009 30.6335 85.8329 30.5564 85.8329 30.476V21.7606C85.8329 21.6802 85.8009 21.603 85.7441 21.5461C85.6872 21.4892 85.6101 21.458 85.5295 21.458ZM95.8167 18.0104H94.417C94.3771 18.0104 94.3377 18.0183 94.3008 18.0335C94.264 18.0488 94.2305 18.0713 94.2022 18.0995C94.1741 18.1278 94.1518 18.1613 94.1366 18.1981C94.1213 18.2351 94.1136 18.2746 94.1138 18.3145V22.9906C93.5117 21.9877 92.5262 21.2576 91.0677 21.2576C88.6416 21.2576 86.8356 23.3009 86.8356 26.1089C86.8356 28.9175 88.6416 30.979 91.0677 30.979C92.527 30.979 93.5117 30.2497 94.1138 29.2462V30.4751C94.1138 30.6426 94.2497 30.7786 94.417 30.7786H95.8167C95.8971 30.7786 95.9743 30.7467 96.0312 30.6898C96.0881 30.6329 96.12 30.5557 96.12 30.4751V18.3145C96.1202 18.2746 96.1125 18.2351 96.0972 18.1981C96.0819 18.1613 96.0597 18.1278 96.0315 18.0995C96.0033 18.0713 95.9698 18.0488 95.933 18.0335C95.8961 18.0183 95.8567 18.0104 95.8167 18.0104ZM91.5242 29.173C89.9738 29.173 88.8797 28.0429 88.8797 26.1097C88.8797 24.1763 89.9745 23.0816 91.5242 23.0816C93.0741 23.0816 94.1506 24.1945 94.1506 26.1097C94.1506 28.0249 93.0567 29.173 91.5242 29.173ZM114.593 21.458H116.147C116.37 21.458 116.516 21.6891 116.422 21.8902L110.924 33.6493C110.899 33.7016 110.861 33.7457 110.812 33.7765C110.763 33.8075 110.707 33.8238 110.649 33.8238H109.112C109.061 33.8237 109.011 33.8108 108.966 33.7861C108.922 33.7614 108.884 33.7261 108.856 33.6829C108.829 33.6399 108.813 33.5907 108.809 33.5398C108.806 33.4888 108.816 33.4379 108.837 33.3917L110.86 29.0629L107.404 21.8926C107.382 21.8463 107.372 21.7952 107.375 21.7438C107.378 21.6925 107.393 21.6428 107.421 21.5993C107.448 21.5557 107.486 21.5199 107.531 21.495C107.576 21.4702 107.627 21.4571 107.678 21.4573H109.296C109.416 21.4573 109.524 21.5279 109.573 21.6371L111.901 26.8381L114.318 21.6332C114.343 21.5811 114.381 21.5369 114.43 21.5058C114.479 21.4748 114.535 21.4582 114.593 21.458ZM121.574 25.3796L120.644 25.1603C119.531 24.8867 118.764 24.6315 118.764 23.9391C118.764 23.3552 119.421 22.9535 120.424 22.9535C121.428 22.9535 122.302 23.3559 122.603 24.4011C122.648 24.5583 122.809 24.6526 122.967 24.6133L124.09 24.3351C124.168 24.3157 124.234 24.2669 124.276 24.1988C124.318 24.1307 124.331 24.0491 124.313 23.9713C123.939 22.2258 122.379 21.2758 120.424 21.2758C118.235 21.2758 116.813 22.3697 116.813 23.9744C116.813 25.3787 117.689 26.2913 119.786 26.8013L120.698 27.0385C121.956 27.331 122.522 27.6224 122.522 28.2425C122.522 28.8634 121.792 29.3192 120.625 29.3192C119.458 29.3192 118.558 28.8053 118.188 27.6932C118.162 27.6174 118.108 27.5545 118.037 27.5183C117.966 27.4822 117.883 27.4755 117.807 27.4998L116.742 27.8441C116.666 27.8689 116.603 27.9227 116.566 27.9937C116.53 28.0647 116.522 28.1473 116.546 28.2236C117.138 30.1498 118.783 30.9781 120.644 30.9781C122.96 30.9781 124.473 29.8112 124.473 28.1694C124.473 26.7651 123.526 25.8716 121.574 25.3796ZM29.2276 27.7018C29.2276 28.8005 29.8413 28.9498 30.6595 28.9199C30.7001 28.9184 30.7409 28.9252 30.779 28.9398C30.8172 28.9544 30.852 28.9765 30.8813 29.0048C30.9108 29.0331 30.9341 29.067 30.9502 29.1046C30.9662 29.1421 30.9744 29.1826 30.9746 29.2234V30.4186C30.9744 30.4933 30.947 30.5651 30.8973 30.6208C30.8476 30.6766 30.7792 30.7119 30.7049 30.7204C28.5893 30.9562 27.3209 29.9557 27.3209 27.7018V18.3303C27.3209 18.1628 27.4569 18.0269 27.6244 18.0269H28.9241C29.0916 18.0269 29.2276 18.1628 29.2276 18.3303V27.7018ZM82.3625 28.9199C81.5443 28.9498 80.9306 28.8005 80.9306 27.7018V18.3303C80.9306 18.2497 80.8987 18.1726 80.8418 18.1157C80.7849 18.0587 80.7077 18.0269 80.6273 18.0269H79.3274C79.2471 18.027 79.1702 18.0591 79.1134 18.116C79.0567 18.1729 79.0248 18.2499 79.0248 18.3303V27.7018C79.0248 29.9557 80.2932 30.9562 82.4088 30.7204C82.4829 30.7119 82.5511 30.6766 82.6008 30.6212C82.6505 30.5656 82.6781 30.4938 82.6785 30.4194V29.2234C82.6783 29.1824 82.6701 29.1421 82.654 29.1044C82.6378 29.0669 82.6143 29.0331 82.5849 29.0048C82.5554 28.9765 82.5204 28.9544 82.4822 28.94C82.4439 28.9256 82.4033 28.9182 82.3625 28.9199ZM106.454 28.4218C106.595 28.8454 106.911 29.0087 107.324 29.0583C107.397 29.0681 107.465 29.1041 107.513 29.1596C107.562 29.2151 107.588 29.2864 107.588 29.36V30.6371C107.588 30.7175 107.556 30.7947 107.499 30.8516C107.442 30.9085 107.366 30.9407 107.285 30.9413C105.852 30.9397 104.889 30.2811 104.559 28.9607L104.553 28.9427C104.466 29.1157 104.396 29.2462 104.396 29.2462C103.794 30.2497 102.809 30.979 101.35 30.979C98.9241 30.979 97.1181 28.9175 97.1181 26.1089C97.1181 23.3009 98.9249 21.2576 101.35 21.2576C102.809 21.2576 103.794 21.9877 104.396 22.9906V21.7606C104.396 21.5933 104.532 21.4573 104.699 21.4573H106.099C106.267 21.4573 106.402 21.5933 106.402 21.7606V28.0554C106.402 28.1797 106.415 28.3038 106.454 28.4218ZM99.1615 26.1089C99.1615 28.0421 100.255 29.1738 101.806 29.1738C103.338 29.1738 104.433 28.024 104.433 26.1089C104.433 24.1937 103.356 23.0809 101.806 23.0809C100.256 23.0809 99.1615 24.1748 99.1615 26.1089Z" fill="#1B1A1A"/>
</svg>
