<svg width="112" height="48" viewBox="0 0 112 48" fill="none" xmlns="http://www.w3.org/2000/svg">
<g clip-path="url(#clip0_1_393)">
<g clip-path="url(#clip1_1_393)">
<g clip-path="url(#clip2_1_393)">
<mask id="mask0_1_393" style="mask-type:luminance" maskUnits="userSpaceOnUse" x="0" y="7" width="111" height="32">
<path d="M110.403 7.35596H0.428467V38.9307H110.403V7.35596Z" fill="white"/>
</mask>
<g mask="url(#mask0_1_393)">
<path d="M36.7222 15.4105C35.232 14.4253 33.4747 13.9224 31.6889 13.9701H25.5V33.0113H29.3385V26.1103H31.4832C33.2918 26.1372 35.0667 25.6217 36.5798 24.6303C37.3251 24.1255 37.9246 23.4334 38.3177 22.6234C38.711 21.8136 38.8839 20.9145 38.8195 20.0165C38.8195 17.9061 38.1204 16.3707 36.7222 15.4105ZM33.8733 22.2245C33.2393 22.7239 32.4475 22.9793 31.6413 22.9447H29.3385V17.1674H31.5861C32.4369 17.1143 33.2789 17.3669 33.9602 17.8797C34.2598 18.1709 34.4914 18.5249 34.6378 18.9163C34.7842 19.3077 34.842 19.7266 34.8069 20.143C34.8046 20.5359 34.7203 20.9239 34.5595 21.2822C34.3985 21.6406 34.1649 21.9615 33.8733 22.2245Z" fill="#1B1A1A"/>
<path d="M42.7395 21.8289L41.5758 20.08H39.6293V33.0116H43.4674V24.9709C44.073 24.4185 44.7725 23.979 45.5331 23.673C46.1657 23.4246 46.8397 23.2984 47.5194 23.301V20.08C46.518 20.038 45.5199 20.222 44.5992 20.6181C43.9309 20.9421 43.3059 21.3489 42.7395 21.8289Z" fill="#1B1A1A"/>
<path d="M53.2176 20.1043H49.3793V33.0201H53.2176V20.1043Z" fill="#1B1A1A"/>
<path d="M51.297 13.9548C51.0184 13.9496 50.7417 14.0033 50.4855 14.1125C50.229 14.2215 49.9984 14.3836 49.809 14.588C49.4133 15.0001 49.1973 15.5521 49.2076 16.1233C49.1939 16.4143 49.24 16.705 49.3436 16.9773C49.4469 17.2497 49.6053 17.4977 49.809 17.706C49.9989 17.9093 50.2297 18.0703 50.4861 18.1779C50.7426 18.2858 51.0188 18.3381 51.297 18.3312C51.5807 18.3367 51.8625 18.2841 52.1252 18.1766C52.3878 18.0691 52.6259 17.909 52.8243 17.706C53.0368 17.5029 53.2033 17.2563 53.3125 16.9833C53.4217 16.7103 53.4711 16.417 53.4573 16.1233C53.4573 15.5474 53.2292 14.995 52.8229 14.5871C52.4164 14.1792 51.8648 13.949 51.2889 13.9469L51.297 13.9548Z" fill="#1B1A1A"/>
<path d="M63.4286 19.6205C62.5666 19.6324 61.715 19.8096 60.9199 20.1429C60.1349 20.4331 59.4086 20.862 58.7751 21.4092L57.7541 20.0796H55.7678V33.0112H59.6141V23.9892C60.0507 23.6795 60.5174 23.4144 61.0068 23.1977C61.4465 22.9934 61.9231 22.8803 62.4077 22.8653C62.6794 22.8508 62.9511 22.8941 63.2048 22.9922C63.4584 23.0904 63.6884 23.2415 63.8798 23.4352C64.2579 23.8944 64.4501 24.4792 64.4177 25.0733V32.9875H68.2562V24.9468C68.3004 23.5973 67.9123 22.2691 67.1482 21.1559C66.4042 20.135 65.1698 19.6205 63.4286 19.6205Z" fill="#1B1A1A"/>
<path d="M84.9322 20.1043H81.0938V33.0201H84.9322V20.1043Z" fill="#1B1A1A"/>
<path d="M92.6491 20.0799V19.3597C92.6212 18.8149 92.7652 18.2751 93.0605 17.8165C93.2141 17.618 93.4145 17.4607 93.6437 17.3583C93.8731 17.2561 94.1241 17.2124 94.3742 17.2308C94.6152 17.2344 94.8545 17.269 95.0865 17.3338C95.357 17.4128 95.6213 17.5105 95.878 17.6266L96.978 14.8804C96.5975 14.5821 96.1619 14.3616 95.6959 14.2314C95.1868 14.0537 94.6524 13.9602 94.1131 13.9544C92.7105 13.8911 91.3343 14.3508 90.251 15.2444C89.7458 15.6994 89.3491 16.2619 89.0903 16.8906C88.8314 17.5193 88.7171 18.1981 88.7555 18.877V20.0799H86.7451V23.4197H88.7555V33.0115H92.6016V23.4433H96.1867L95.1103 20.0799H92.6491Z" fill="#1B1A1A"/>
<path d="M105.848 20.0809L103.188 27.7574C102.737 26.4753 102.278 25.2013 101.804 23.9192C101.329 22.637 100.87 21.363 100.395 20.0809H96.3351L100.696 31.2316C100.973 31.9362 100.973 32.7196 100.696 33.4238C100.424 34.0274 99.9473 34.5153 99.3503 34.8009C98.7188 35.1505 98.0658 35.4597 97.3954 35.727L98.725 38.8926C99.9162 38.5876 101.035 38.0497 102.017 37.3098C102.982 36.635 103.735 35.6987 104.186 34.611L109.821 20.0809H105.848Z" fill="#1B1A1A"/>
<path d="M82.9931 13.9627C82.7113 13.9572 82.4315 14.0116 82.1725 14.122C81.9133 14.2325 81.6805 14.3967 81.4893 14.6037C81.2903 14.8044 81.1339 15.043 81.0294 15.3054C80.9246 15.5679 80.8739 15.8487 80.8799 16.1311C80.873 16.4137 80.9233 16.6948 81.0282 16.9573C81.1328 17.2198 81.2898 17.4584 81.4893 17.6584C81.6839 17.8597 81.9177 18.0183 82.1766 18.1246C82.4354 18.2308 82.7133 18.2823 82.9931 18.2758C83.2847 18.2843 83.5751 18.2341 83.8472 18.128C84.119 18.0219 84.3669 17.8623 84.5759 17.6584C84.7813 17.4606 84.9445 17.2234 85.0561 16.961C85.1677 16.6985 85.2253 16.4163 85.2253 16.1311C85.2253 15.8459 85.1677 15.5637 85.0561 15.3012C84.9445 15.0388 84.7813 14.8016 84.5759 14.6037C84.3704 14.3938 84.1235 14.2285 83.8511 14.1182C83.5789 14.0079 83.2867 13.9549 82.9931 13.9627Z" fill="#1B1A1A"/>
<path d="M77.6951 29.5773C77.4605 29.6414 77.2184 29.676 76.975 29.6802C76.7257 29.6992 76.4756 29.6558 76.2474 29.5536C76.0194 29.4511 75.8206 29.2932 75.669 29.0944C75.3709 28.6367 75.2242 28.0968 75.2497 27.5512V23.5941H78.6923L77.5844 20.2703H75.2497V16.1233H71.4114V20.0803H69.4014V23.4201H71.4114V28.0656C71.3722 28.7438 71.4853 29.4222 71.7426 30.0508C72.0001 30.6796 72.3954 31.2426 72.8993 31.698C73.9823 32.5919 75.3587 33.0515 76.7614 32.9882C77.3002 32.9808 77.8347 32.8874 78.3442 32.711C78.8069 32.5792 79.2395 32.3587 79.6182 32.0622L78.5261 29.2922C78.2559 29.406 77.9783 29.5012 77.6951 29.5773Z" fill="#1B1A1A"/>
<path d="M5.50023 17.5407C5.69811 16.4722 5.83263 15.8233 5.90386 15.4909C6.33914 13.2354 5.90386 11.6922 4.77216 11.4864C4.16278 11.3756 3.75125 11.7475 3.48218 12.7922C2.91235 14.9607 1.21875 21.4581 1.21875 21.4581L3.24475 18.7357C3.5089 18.382 3.84821 18.0915 4.23826 17.8847C4.62828 17.6781 5.0593 17.5605 5.50023 17.5407Z" fill="#1B1A1A"/>
<path d="M4.05686 20.5945C4.2714 20.3058 4.55078 20.0716 4.87245 19.9108C5.19413 19.7498 5.54909 19.6669 5.90875 19.6684C6.32162 19.6665 6.72698 19.7788 7.08004 19.9929C7.15126 19.9929 8.66284 21.1326 9.57297 21.8132H11.314C12.3853 21.812 13.4417 21.5627 14.4005 21.0851C14.8268 20.853 15.1781 20.5045 15.4135 20.08C15.5235 19.8308 15.5431 19.5508 15.4689 19.2885C15.4319 19.1841 15.3733 19.0885 15.2969 19.0081C15.2206 18.9277 15.1282 18.8641 15.0258 18.8217C14.7771 18.711 14.5062 18.6594 14.2343 18.6712H5.52886C5.25069 18.6798 4.978 18.7511 4.73131 18.8798C4.48461 19.0088 4.27025 19.1917 4.10435 19.4152L0.606333 24.1715C0.551941 24.2718 0.509445 24.3781 0.479709 24.4881C0.448983 24.6237 0.447199 24.7643 0.474472 24.9008C0.501745 25.037 0.557463 25.1661 0.637989 25.2794L4.05686 20.5945Z" fill="#1B1A1A"/>
<path d="M3.54224 24.2988C3.72131 24.0559 3.94653 23.8507 4.20505 23.6948C4.46353 23.539 4.75023 23.4358 5.04865 23.3909C5.34711 23.3461 5.65148 23.3606 5.94435 23.4336C6.2372 23.5064 6.51279 23.6364 6.75536 23.816L9.6598 25.9527C10.021 26.2018 10.3213 26.5291 10.5383 26.9103C10.6395 27.0982 10.709 27.3014 10.744 27.5119C11.0255 27.6038 11.314 27.6725 11.6067 27.7176C12.0788 27.7891 12.5616 27.726 12.9995 27.5357C13.2642 27.397 13.4654 27.1618 13.5614 26.8788C13.5929 26.7735 13.6021 26.663 13.5885 26.5539C13.5749 26.4449 13.5387 26.3398 13.4823 26.2457C13.344 26.0091 13.1548 25.8063 12.9283 25.652L6.59706 21.0065L6.48628 20.9354C6.30203 20.8255 6.09135 20.768 5.87689 20.7691C5.7165 20.7672 5.55738 20.7977 5.40909 20.8589C5.26084 20.9201 5.12651 21.0106 5.01426 21.1253L4.91139 21.2518L0.566559 27.2033C0.467748 27.3679 0.420242 27.5582 0.43011 27.7498C0.439977 27.9415 0.506771 28.1259 0.621957 28.2795L3.54224 24.2988Z" fill="#1B1A1A"/>
<path d="M9.13873 17.5397H12.8425C12.7655 17.3684 12.6783 17.2018 12.5814 17.0411C12.178 16.3574 11.6707 15.7406 11.0777 15.2129C10.8253 14.9515 10.4999 14.7724 10.1441 14.699C9.78827 14.6256 9.41854 14.6612 9.08334 14.8014C8.81218 14.9686 8.61724 15.2354 8.54032 15.5446C8.46342 15.8537 8.5106 16.1807 8.67181 16.4555L9.13873 17.5397Z" fill="#1B1A1A"/>
<path d="M14.777 22.1216C14.5238 22.2481 14.2626 22.351 13.9856 22.4459C13.2912 22.6895 12.5671 22.8387 11.833 22.8892C11.4056 22.8892 11.0416 22.8892 11.0416 22.8892L12.6244 24.0683L13.5503 24.7489C13.9101 25.0028 14.21 25.3324 14.4288 25.7146C14.5567 25.9379 14.6375 26.1853 14.6661 26.4412C14.6947 26.697 14.6705 26.956 14.595 27.2024C14.4104 27.7618 14.0121 28.2255 13.487 28.4924C12.7567 28.8179 11.9413 28.9011 11.1603 28.7298L10.5984 28.611C10.3843 29.0674 10.0254 29.4402 9.57748 29.6715C8.9482 29.9749 8.24327 30.0848 7.55147 29.9881C6.85855 29.8767 6.1846 29.6689 5.54922 29.3708C5.47924 29.3368 5.41716 29.2888 5.367 29.2295C5.31683 29.1702 5.27975 29.1008 5.2581 29.0262C5.23644 28.9515 5.23074 28.8731 5.24135 28.7962C5.25199 28.7192 5.27868 28.6453 5.31971 28.5793C5.38759 28.4756 5.48927 28.3983 5.60752 28.3609C5.72579 28.3234 5.85335 28.3278 5.96867 28.3736C6.5062 28.6328 7.07987 28.8088 7.6702 28.8959C8.14235 28.9674 8.62511 28.9043 9.06307 28.7139C9.32531 28.5781 9.52413 28.3453 9.61704 28.065C9.64968 27.9586 9.65949 27.8464 9.64586 27.736C9.63222 27.6255 9.59544 27.5192 9.5379 27.4239C9.43835 27.2458 9.30372 27.0896 9.1422 26.965L6.1032 24.7014C5.86751 24.5264 5.57526 24.4448 5.28292 24.4726C4.99058 24.5003 4.7189 24.6354 4.5204 24.8519L4.44127 24.9388L0.642512 30.0988C0.504213 30.2869 0.429376 30.5144 0.428833 30.7479C0.432002 30.8984 0.466746 31.0467 0.530819 31.1831C0.594892 31.3192 0.686866 31.4406 0.800794 31.5392C2.52804 32.9387 4.34128 34.2286 6.22984 35.4011C6.3723 35.4963 6.79965 35.7337 6.83131 35.7574C7.9194 36.3334 9.13821 36.6174 10.3688 36.5818C11.5994 36.5463 12.7998 36.1923 13.8528 35.5546C14.9059 34.9168 15.7757 34.017 16.3773 32.943C16.979 31.8688 17.292 30.6572 17.2858 29.4263C17.2817 28.4115 17.0661 27.4088 16.6526 26.4822C16.439 26.031 14.7849 22.1216 14.777 22.1216Z" fill="#1B1A1A"/>
<path d="M9.58519 8.20917C9.49372 8.21323 9.40394 8.23529 9.32099 8.27411C9.23803 8.31292 9.16357 8.3677 9.1018 8.43533C9.04005 8.50296 8.99226 8.58211 8.96114 8.66824C8.93001 8.75436 8.91618 8.84578 8.92043 8.93726C8.92043 9.5862 9.0075 10.8841 9.03122 11.5331C9.04074 11.6782 9.10321 11.8148 9.2068 11.9169C9.31038 12.0191 9.44786 12.0796 9.59313 12.087C9.74718 12.0935 9.89755 12.039 10.0116 11.9353C10.1257 11.8315 10.1943 11.687 10.2025 11.5331C10.2025 10.8841 10.3212 9.52291 10.3133 8.87395C10.3103 8.78212 10.2889 8.69183 10.2505 8.60837C10.212 8.52492 10.1573 8.45003 10.0894 8.38807C10.0216 8.32612 9.94197 8.27837 9.8554 8.24764C9.76881 8.21692 9.67694 8.20384 9.58519 8.20917Z" fill="#1B1A1A"/>
<path d="M15.4713 10.0452C15.3146 9.9468 15.1254 9.9141 14.9447 9.95409C14.7641 9.99407 14.6064 10.1035 14.5058 10.2588L13.0971 12.4431C13.0155 12.5703 12.9861 12.7241 13.0153 12.8723C13.0444 13.0206 13.1296 13.1519 13.2533 13.2387C13.3769 13.3256 13.5293 13.3613 13.6787 13.3384C13.828 13.3155 13.9628 13.2357 14.0547 13.1158C14.4504 12.6014 15.2972 11.533 15.6375 11.0028C15.6903 10.9293 15.728 10.846 15.7482 10.7578C15.7685 10.6696 15.771 10.5782 15.7555 10.4891C15.74 10.3999 15.7069 10.3147 15.6581 10.2385C15.6093 10.1623 15.5458 10.0965 15.4713 10.0452Z" fill="#1B1A1A"/>
<path d="M19.2208 14.9127C19.1476 14.7442 19.0115 14.6111 18.8414 14.5416C18.6714 14.4721 18.4809 14.4718 18.3107 14.5407L15.9365 15.5379C15.8009 15.5943 15.6914 15.6997 15.6298 15.8331C15.5683 15.9665 15.5591 16.1182 15.6041 16.258C15.6266 16.331 15.6634 16.3988 15.7123 16.4575C15.7612 16.5162 15.8212 16.5645 15.8889 16.5999C15.9566 16.6352 16.0307 16.6568 16.1067 16.6633C16.1828 16.6698 16.2595 16.6612 16.3322 16.6379C16.9495 16.4401 18.2553 16.0602 18.8648 15.8465C18.9518 15.8115 19.0307 15.7589 19.0965 15.692C19.1624 15.625 19.2136 15.5452 19.247 15.4575C19.2805 15.3698 19.2954 15.2761 19.2909 15.1823C19.2863 15.0886 19.2625 14.9968 19.2208 14.9127Z" fill="#1B1A1A"/>
</g>
</g>
</g>
</g>
<defs>
<clipPath id="clip0_1_393">
<rect width="111.429" height="48" fill="white" transform="translate(0.428406)"/>
</clipPath>
<clipPath id="clip1_1_393">
<rect width="111.429" height="48" fill="white" transform="translate(0.428406)"/>
</clipPath>
<clipPath id="clip2_1_393">
<rect width="111.429" height="48" fill="white" transform="translate(0.428406)"/>
</clipPath>
</defs>
</svg>
